<svg xmlns="http://www.w3.org/2000/svg" id="logo" viewBox="0 0 200 44" fill="none">
    <path
      fill-rule="evenodd"
      clip-rule="evenodd"
      d="M28.7207 28.0734L20.251 4.44665L11.7812 28.0734H28.7207ZM30.5688 33.1674H9.93539L5.79469 44.6948H0L16.0482 0.116425H24.4537L40.5031 44.6948H34.7072L30.5688 33.1674Z"
      fill="currentColor"
    />
    <path
      fill-rule="evenodd"
      clip-rule="evenodd"
      d="M62.284 21.5137C68.8437 21.5137 72.0264 18.3298 72.0264 13.1714C72.0264 8.07623 68.8437 5.27479 62.284 5.27479H51.648V21.5137H62.284ZM78.2679 44.6948H71.9644C69.7981 42.084 69.48 38.2626 69.48 35.6518C69.48 32.0211 70.1163 29.2197 67.0599 26.6089H51.648V44.6948H45.9808V0.116425H62.284C71.5819 0.116425 77.8223 4.70164 77.8223 13.2346C77.8223 19.8574 74.319 23.2975 69.2893 24.252C75.084 25.9714 75.2115 31.0034 75.2747 35.2693C75.339 38.5176 76.0385 42.1472 78.2679 44.6948Z"
      fill="currentColor"
    />
    <path
      fill-rule="evenodd"
      clip-rule="evenodd"
      d="M113.305 31.7673C115.089 36.3525 117.253 41.1927 119.8 44.6948H113.496C111.266 41.7658 109.293 36.1607 107.701 32.2129L102.796 19.8574L91.6514 31.3205V44.6948H85.9843V0.116425H91.6514V23.4238L114.324 0.116425H121.965L107 15.5272L113.305 31.7673Z"
      fill="currentColor"
    />
    <path
      fill-rule="evenodd"
      clip-rule="evenodd"
      d="M132.602 5.21047V19.2211H155.528V24.3163H132.602V39.5996H157.947V44.6948H126.934V0.116425H157.947V5.21047H132.602Z"
      fill="currentColor"
    />
    <path
      fill-rule="evenodd"
      clip-rule="evenodd"
      d="M199.98 5.21047H184.123V44.6948H178.455V5.21047H162.598V0.116425H199.98V5.21047Z"
      fill="currentColor"
    />
  </svg>